# xmcd
#
# Track frame offsets:
#	183
#	56758
#	80433
#	143958
#	159255
#
# Disc length: 2448
#
# Revision: 0
# Processed by: cddbd v1.5.1PL2 Copyright (c) Steve Scherf et al.
# Submitted via: Broken Cross Disk Manager 3.81.2155
#
DISCID=3a098e05
DTITLE=Various Artist - Wien, Wien, nur du allein
DYEAR=1900
DGENRE=
TTITLE0=Wien singt (1.Teil)
TTITLE1=Sterne aus Wien (Pot 1.Teil)
TTITLE2=Wien singt (2.Teil)
TTITLE3=Besuch in Grinzing (Pot 3. Teil)
TTITLE4=Sterne aus Wien (Pot. 2. Teil)
EXTD=
EXTT0=
EXTT1=
EXTT2=
EXTT3=
EXTT4=
PLAYORDER=
